# This file uses centimeters as units for non-parametric coordinates.

g default
v -11.231856 -0.384131 -2.970317
v -11.231856 -0.115266 -2.432238
v -11.769935 -0.115266 -2.970317
v -10.232414 -0.115266 -2.970317
v -10.770493 -0.115266 -2.432238
v -10.770493 -0.384131 -2.970317
v -11.769935 0.115266 -2.970317
v -11.231856 0.045230 -2.432238
v -11.152404 0.266435 -2.786561
v -10.950593 0.266435 -2.786561
v -10.770493 0.045230 -2.432238
v -10.232414 0.057699 -2.970317
v -11.775376 0.115266 -3.322316
v -11.157845 0.335606 -3.322316
v -11.450593 0.088600 -3.763175
v -10.462394 0.088600 -3.763175
v -10.950593 0.335606 -3.431681
v -10.232414 0.057699 -3.431681
v -11.769935 -0.115266 -3.431681
v -11.450593 -0.115266 -3.969760
v -11.231856 -0.384131 -3.431681
v -10.770493 -0.384131 -3.431681
v -10.462394 -0.115266 -3.969760
v -10.232414 -0.115266 -3.431681
vt 0.462491 0.912509
vt 0.375000 0.912509
vt 0.375000 0.837491
vt 0.462491 0.000000
vt 0.462491 0.087491
vt 0.625000 0.912509
vt 0.537509 0.912509
vt 0.625000 0.837491
vt 0.712491 0.087491
vt 0.375000 0.337491
vt 0.375000 0.412509
vt 0.462491 0.162509
vt 0.537509 0.162509
vt 0.625000 0.337491
vt 0.375000 0.587491
vt 0.375000 0.662509
vt 0.462491 0.412509
vt 0.537509 0.412509
vt 0.625000 0.587491
vt 0.625000 0.662509
vt 0.462491 0.662509
vt 0.537509 0.662509
vt 0.537509 0.837491
vt 0.537509 0.087491
vt 0.462491 0.337491
vt 0.537509 0.337491
vt 0.462491 0.587491
vt 0.537509 0.587491
vt 0.462491 0.837491
vt 0.787509 0.087491
vt 0.787509 0.162509
vt 0.212491 0.087491
vt 0.287509 0.087491
vt 0.287509 0.162509
vt 0.212491 0.162509
vt 0.537509 0.000000
vt 0.712491 0.162509
vt 0.625000 0.412509
vn -0.446982 -0.894543 0.000000
vn -0.446982 -0.894543 0.000000
vn -0.446982 -0.894543 0.000000
vn -0.446982 -0.894543 0.000000
vn 0.000000 -0.894543 0.446982
vn 0.000000 -0.894543 0.446982
vn 0.000000 -0.894543 0.446982
vn 0.000000 -0.894543 0.446982
vn -0.707107 0.000000 0.707107
vn -0.707107 0.000000 0.707107
vn -0.707107 0.000000 0.707107
vn -0.707107 0.000000 0.707107
vn 0.446982 -0.894543 0.000000
vn 0.446982 -0.894543 0.000000
vn 0.446982 -0.894543 0.000000
vn 0.446982 -0.894543 0.000000
vn 0.707107 0.000000 0.707107
vn 0.707107 0.000000 0.707107
vn 0.707107 0.000000 0.707107
vn 0.707107 0.000000 0.707107
vn -0.297775 0.951462 0.077786
vn -0.297775 0.951462 0.077786
vn -0.297775 0.951462 0.077786
vn -0.297775 0.951462 0.077786
vn 0.000000 0.848264 0.529574
vn 0.000000 0.848264 0.529574
vn 0.000000 0.848264 0.529574
vn 0.000000 0.848264 0.529574
vn 0.327086 0.943153 0.058961
vn 0.327086 0.943153 0.058961
vn 0.327086 0.943153 0.058961
vn 0.327086 0.943153 0.058961
vn -0.772386 0.367242 -0.518221
vn -0.772386 0.367242 -0.518221
vn -0.772386 0.367241 -0.518221
vn -0.772386 0.367242 -0.518221
vn -0.050052 0.835563 -0.547111
vn -0.050052 0.835563 -0.547111
vn -0.050052 0.835563 -0.547111
vn -0.050052 0.835563 -0.547111
vn 0.860631 0.244795 -0.446531
vn 0.860631 0.244795 -0.446531
vn 0.860631 0.244795 -0.446531
vn 0.860631 0.244795 -0.446531
vn 0.000000 -0.894543 -0.446982
vn 0.000000 -0.894543 -0.446982
vn 0.000000 -0.894543 -0.446982
vn 0.000000 -0.894543 -0.446982
vn 0.000000 0.000000 1.000000
vn 0.000000 0.000000 1.000000
vn 0.000000 0.000000 1.000000
vn 0.000000 0.000000 1.000000
vn 0.031056 0.992745 0.116160
vn 0.031056 0.992745 0.116160
vn 0.031056 0.992745 0.116160
vn 0.031056 0.992745 0.116160
vn 0.000000 0.711776 -0.702407
vn 0.000000 0.711776 -0.702407
vn 0.000000 0.711776 -0.702407
vn 0.000000 0.711776 -0.702407
vn 0.000000 -1.000000 0.000000
vn 0.000000 -1.000000 0.000000
vn 0.000000 -1.000000 0.000000
vn 0.000000 -1.000000 0.000000
vn 1.000000 0.000000 0.000000
vn 1.000000 0.000000 0.000000
vn 1.000000 0.000000 0.000000
vn 1.000000 0.000000 0.000000
vn -0.999888 -0.013386 0.006689
vn -0.999888 -0.013386 0.006689
vn -0.999888 -0.013386 0.006689
vn -0.999888 -0.013386 0.006689
vn -0.408072 -0.816673 0.408072
vn -0.408072 -0.816673 0.408072
vn -0.408072 -0.816673 0.408072
vn 0.408072 -0.816673 0.408072
vn 0.408072 -0.816673 0.408072
vn 0.408072 -0.816673 0.408072
vn -0.335448 0.831069 0.443620
vn -0.335448 0.831069 0.443620
vn -0.335448 0.831069 0.443620
vn 0.344720 0.864937 0.364764
vn 0.344720 0.864937 0.364764
vn 0.344720 0.864937 0.364764
vn -0.321479 0.900986 -0.291335
vn -0.321479 0.900986 -0.291335
vn -0.321479 0.900986 -0.291335
vn 0.356158 0.920399 -0.161297
vn 0.356158 0.920399 -0.161297
vn 0.356158 0.920399 -0.161297
vn -0.432038 -0.864637 -0.256408
vn -0.432038 -0.864637 -0.256408
vn -0.432038 -0.864637 -0.256408
vn 0.439041 -0.878652 -0.187651
vn 0.439042 -0.878652 -0.187651
vn 0.439041 -0.878652 -0.187651
s off
g pCube3
f 1/1/1 3/2/2 19/3/3 21/29/4
f 2/5/5 1/4/6 6/36/7 5/24/8
f 3/33/9 2/5/10 8/12/11 7/34/12
f 4/6/13 6/7/14 22/23/15 24/8/16
f 5/24/17 4/9/18 12/37/19 11/13/20
f 7/10/21 9/25/22 14/17/23 13/11/24
f 9/25/25 8/12/26 11/13/27 10/26/28
f 10/26/29 12/14/30 18/38/31 17/18/32
f 13/15/33 15/27/34 20/21/35 19/16/36
f 15/27/37 14/17/38 17/18/39 16/28/40
f 16/28/41 18/19/42 24/20/43 23/22/44
f 21/29/45 20/21/46 23/22/47 22/23/48
f 2/5/49 5/24/50 11/13/51 8/12/52
f 9/25/53 10/26/54 17/18/55 14/17/56
f 15/27/57 16/28/58 23/22/59 20/21/60
f 21/29/61 22/23/62 6/7/63 1/1/64
f 4/9/65 24/30/66 18/31/67 12/37/68
f 19/32/69 3/33/70 7/34/71 13/35/72
f 1/4/73 2/5/74 3/33/75
f 4/9/76 5/24/77 6/36/78
f 7/34/79 8/12/80 9/25/81
f 10/26/82 11/13/83 12/37/84
f 13/11/85 14/17/86 15/27/87
f 16/28/88 17/18/89 18/38/90
f 19/16/91 20/21/92 21/29/93
f 22/23/94 23/22/95 24/20/96
