# This file uses centimeters as units for non-parametric coordinates.

g default
v 0.465507 -0.105067 -1.119088
v 0.497614 -0.028437 -0.822696
v 0.329796 -0.028437 -1.101489
v 1.833745 -0.024082 -0.801277
v 1.509723 -0.024082 -0.673083
v 1.551176 -0.105067 -0.958600
v 0.329796 1.256687 -1.101489
v 0.497614 1.256687 -0.822696
v 0.465507 1.379987 -1.119088
v 1.551176 1.379987 -0.958600
v 1.509723 1.252332 -0.673083
v 1.833745 1.252332 -0.801277
v 0.135115 1.643341 -3.801777
v 0.149970 1.256434 -3.937079
v -0.001001 1.256434 -3.801611
v 2.133350 1.258411 -4.537825
v 1.769338 1.258411 -4.369021
v 1.777746 1.643341 -4.259159
v 1.997061 1.333317 -4.229374
v -0.001001 -0.028185 -3.801611
v 0.149970 -0.028185 -3.937079
v 0.135115 -0.105067 -3.801777
v 1.997061 -0.105067 -4.229374
v 1.777746 -0.105067 -4.259159
v 1.769338 -0.030161 -4.369021
v 2.133350 -0.030161 -4.537825
v -0.429516 1.256931 -2.450875
v -0.260018 1.379987 -2.370533
v -0.341474 1.643341 -2.620195
v -0.444203 1.256931 -2.654860
v 2.159432 1.333317 -1.954457
v 1.962995 1.643341 -1.924796
v 1.912826 1.379987 -1.733115
v 2.173581 1.257547 -1.572379
v 2.340325 1.257547 -1.576757
v -0.260018 -0.105067 -2.370533
v -0.429516 -0.028681 -2.450875
v -0.444203 -0.028681 -2.654860
v -0.341474 -0.105067 -2.620195
v 2.340325 -0.029297 -1.576757
v 2.173581 -0.029297 -1.572379
v 1.912826 -0.105067 -1.733115
v 1.962995 -0.105067 -1.924796
v 2.159432 -0.105067 -1.954457
v 3.739872 -0.022960 -2.424469
v 3.466049 -0.022960 -1.997216
v 3.264225 -0.105067 -2.386936
v 3.264225 1.333317 -2.386936
v 3.466049 1.251210 -1.997216
v 3.739872 1.251210 -2.424469
v 3.522934 -0.027556 -3.748340
v 3.037299 -0.105067 -3.771775
v 3.200123 -0.027556 -4.089229
v 3.522934 1.255806 -3.748340
v 3.200123 1.255806 -4.089229
v 3.037299 1.333317 -3.771775
vt 0.392121 0.985425
vt 0.375000 0.991404
vt 0.390427 -0.000000
vt 0.397568 0.013319
vt 0.625000 0.984998
vt 0.598811 0.983527
vt 0.625000 0.879529
vt 0.640002 0.014076
vt 0.375000 0.258596
vt 0.375000 0.375939
vt 0.397568 0.236681
vt 0.601149 0.235924
vt 0.625000 0.265002
vt 0.375000 0.490975
vt 0.375000 0.393474
vt 0.386996 0.494037
vt 0.389968 0.513363
vt 0.375000 0.730913
vt 0.875000 0.236981
vt 0.625000 0.525127
vt 0.625000 0.491729
vt 0.610493 0.495104
vt 0.625000 0.396045
vt 0.125000 0.000000
vt 0.222877 0.000000
vt 0.389968 0.736637
vt 0.610417 0.736981
vt 0.869609 0.000000
vt 0.875000 0.013019
vt 0.625000 0.758271
vt 0.625000 0.853955
vt 0.231526 0.236724
vt 0.231526 0.013276
vt 0.249061 0.013276
vt 0.389614 0.372750
vt 0.602917 0.372750
vt 0.612982 0.391005
vt 0.745471 0.236831
vt 0.745471 0.013169
vt 0.385239 0.856872
vt 0.612982 0.858994
vt 0.602917 0.877250
vt 0.767590 0.000000
vt 0.768976 0.000000
vt 0.868684 0.000000
vt 0.768403 0.014271
vt 0.759507 0.235729
vt 0.768403 0.235729
vt 0.868684 0.250000
vt 0.875000 0.013472
vt 0.875000 0.236528
vt 0.866602 0.236528
vt 0.601149 0.014076
vt 0.392121 0.264575
vt 0.598811 0.266473
vt 0.610417 0.513019
vt 0.389614 0.877250
vt 0.366404 0.013319
vt 0.366404 0.236681
vt 0.249061 0.236724
vt 0.385239 0.393128
vt 0.134025 0.013363
vt 0.134025 0.236637
vt 0.386996 0.755963
vt 0.610493 0.754896
vt 0.866602 0.013472
vt 0.759507 0.236831
vt 0.759507 0.013169
vt 0.759507 0.014271
vt 0.869609 0.250000
vt 0.767590 0.250000
vt 0.768976 0.250000
vt 0.608805 0.000000
vt 0.640002 0.235924
vt 0.375000 0.513039
vt 0.625000 0.500000
vt 0.625000 0.750000
vt 0.625000 0.737646
vt 0.385788 0.384507
vt 0.625000 0.384507
vt 0.625000 0.370471
vt 0.625000 0.384507
vt 0.375000 0.874061
vt 0.385788 0.865493
vt 0.625000 0.865493
vt 0.625000 0.865493
vn -0.188878 -0.943998 0.270543
vn -0.474191 -0.837556 0.271372
vn -0.491538 -0.842358 0.220960
vn -0.478014 -0.837887 0.263529
vn -0.051337 -0.963748 0.261828
vn 0.068288 -0.975541 0.208941
vn -0.023472 -0.964457 0.263196
vn -0.868992 0.000000 0.494826
vn -0.342298 0.000000 0.939591
vn -0.342298 0.000000 0.939591
vn -0.868992 0.000000 0.494826
vn 0.215715 -0.970229 0.110102
vn 0.195450 -0.974201 0.112838
vn 0.154798 -0.979467 0.129160
vn 0.367890 0.000000 0.929869
vn 0.367890 0.000000 0.929869
vn 0.367890 0.000000 0.929869
vn 0.367890 0.000000 0.929869
vn -0.628284 0.689838 0.359698
vn -0.291429 0.869215 0.399419
vn -0.681689 0.630965 0.370383
vn -0.731892 0.566095 0.379302
vn -0.083052 0.914443 0.396102
vn -0.035051 0.916637 0.398180
vn 0.104708 0.942217 0.318219
vn 0.328928 0.929101 0.169049
vn 0.382460 0.879766 0.282378
vn 0.363532 0.903125 0.228494
vn -0.559788 0.319665 -0.764494
vn -0.881253 0.288618 -0.374289
vn -0.914536 0.311007 -0.258646
vn -0.899711 0.298186 -0.318756
vn -0.273849 0.289257 -0.917244
vn -0.234698 0.310480 -0.921151
vn -0.207575 0.340476 -0.917054
vn -0.907340 0.000000 -0.420397
vn -0.305112 0.000000 -0.952316
vn -0.305112 0.000000 -0.952316
vn -0.907340 0.000000 -0.420397
vn 0.093945 0.968574 -0.230300
vn 0.126782 0.920986 -0.368390
vn 0.124011 0.985206 -0.118277
vn 0.108924 0.976815 -0.184303
vn -0.289948 0.000000 -0.957042
vn 0.191308 0.000000 -0.981530
vn 0.191308 0.000000 -0.981530
vn -0.289948 0.000000 -0.957042
vn 0.352281 0.935517 -0.026568
vn 0.159309 0.987156 -0.012015
vn 0.151785 0.980087 0.128030
vn 0.274236 0.961440 -0.020682
vn -0.507174 -0.836592 -0.207095
vn -0.280332 -0.859823 -0.426752
vn -0.514011 -0.844564 -0.150013
vn -0.514482 -0.845131 -0.145125
vn -0.153563 -0.838381 -0.523007
vn -0.132024 -0.860568 -0.491927
vn -0.131064 -0.862262 -0.489210
vn 0.043631 -0.970218 -0.238272
vn 0.077896 -0.975721 -0.204698
vn 0.108924 -0.976815 -0.184303
vn 0.124011 -0.985206 -0.118277
vn 0.000000 -1.000000 0.000000
vn 0.000000 -1.000000 0.000000
vn 0.000000 -1.000000 0.000000
vn 0.000000 -1.000000 0.000000
vn -0.895053 0.000000 0.445960
vn -0.953199 0.000000 -0.302344
vn -0.953199 0.000000 -0.302344
vn -0.895053 0.000000 0.445960
vn -0.056941 0.979882 0.191280
vn -0.159051 0.830198 0.534297
vn -0.123136 0.902071 0.413648
vn 0.198868 0.945140 0.259158
vn 0.095710 0.977393 0.188527
vn 0.067316 0.983361 0.168731
vn 0.067316 0.983361 0.168731
vn 0.311959 0.000000 0.950096
vn 0.836188 0.000000 0.548443
vn 0.836188 0.000000 0.548443
vn 0.311959 0.000000 0.950096
vn 0.000000 -1.000000 0.000000
vn 0.000000 -1.000000 0.000000
vn 0.000000 -1.000000 0.000000
vn 0.068495 -0.983419 0.167913
vn 0.073093 -0.983628 0.164722
vn 0.067316 -0.983361 0.168731
vn 0.067316 -0.983361 0.168731
vn 0.163394 -0.986241 -0.025101
vn 0.163394 -0.986242 -0.025101
vn 0.163419 -0.986143 -0.028572
vn 0.841930 0.000000 0.539587
vn 0.841930 0.000000 0.539587
vn 0.841930 0.000000 0.539587
vn 0.841930 0.000000 0.539587
vn 0.163394 0.986242 -0.025101
vn 0.163394 0.986242 -0.025101
vn 0.163419 0.986143 -0.028572
vn 0.950918 0.000000 -0.309443
vn 0.493700 0.000000 -0.869632
vn 0.493700 0.000000 -0.869632
vn 0.950918 0.000000 -0.309443
vn -0.146234 0.000000 0.989250
vn -0.146234 0.000000 0.989250
vn 0.000000 1.000000 0.000000
vn 0.000000 1.000000 0.000000
vn 0.000000 -1.000000 0.000000
vn 0.000000 -1.000000 0.000000
vn 0.915074 0.000000 0.403286
vn 0.915074 0.000000 0.403286
vn 0.000000 1.000000 -0.000000
vn 0.000000 -1.000000 0.000000
vn 0.986838 0.000000 -0.161710
vn 0.986838 0.000000 -0.161710
vn 0.349892 0.000000 0.936790
vn 0.349892 0.000000 0.936790
vn 0.000000 -1.000000 0.000000
vn 0.000000 -1.000000 0.000000
vn 0.000000 1.000000 0.000000
vn 0.000000 1.000000 0.000000
vn 0.420790 0.812537 0.403385
vn 0.085304 -0.984033 0.156214
vn 0.177720 -0.977467 0.113899
vn 0.177720 -0.977468 0.113899
vn 0.177720 -0.977467 0.113899
vn 0.177720 0.977468 0.113899
vn 0.177720 0.977467 0.113899
vn 0.177720 0.977467 0.113899
s 1
g pCube1
f 1/1/1 3/2/2 37/83/3 36/57/4
f 2/4/5 1/3/1 6/73/6 5/53/7
s 2
f 3/58/8 2/4/9 8/11/10 7/59/11
s 1
f 4/5/12 6/6/6 42/42/13 41/7/14
s off
f 5/53/15 4/8/16 12/74/17 11/12/18
s 3
f 7/9/19 9/54/20 28/35/21 27/10/22
f 9/54/20 8/11/23 11/12/24 10/55/25
f 10/55/25 12/13/26 34/81/27 33/36/28
f 13/16/29 15/14/30 30/15/31 29/61/32
f 14/17/33 13/16/29 18/22/34 17/56/35
s 2
f 15/75/36 14/17/37 21/26/38 20/18/39
s 3
f 16/19/40 19/70/41 56/49/42 55/51/43
s 2
f 17/56/44 16/20/45 26/78/46 25/27/47
s 7
f 19/21/48 18/22/49 32/37/50 31/23/51
s 1
f 20/62/52 22/24/53 39/25/54 38/33/55
f 22/64/53 21/26/56 25/27/57 24/65/58
f 23/28/59 26/29/60 53/50/61 52/45/62
s 9
f 24/65/63 23/30/64 44/31/65 43/41/66
s 2
f 27/60/67 30/32/68 38/33/69 37/34/70
s 7
f 29/61/71 28/35/72 33/36/73 32/37/50
s 3
f 31/71/74 35/67/75 49/47/76 48/72/77
s 11
f 35/67/78 34/38/79 41/39/80 40/68/81
s 9
f 36/57/82 39/40/83 43/41/66 42/42/84
s 1
f 40/68/85 44/43/86 47/44/87 46/69/88
f 45/46/89 47/44/90 52/45/62 51/66/91
s off
f 46/69/92 45/46/93 50/48/94 49/47/95
s 3
f 48/72/96 50/48/97 54/52/98 56/49/42
s 2
f 51/66/99 53/50/100 55/51/101 54/52/102
f 2/4/9 5/53/103 11/12/104 8/11/10
s 7
f 9/54/105 10/55/106 33/36/73 28/35/72
s 2
f 14/17/37 17/56/44 25/27/47 21/26/38
s 9
f 36/57/82 42/42/84 6/6/107 1/1/108
s 11
f 4/8/109 41/39/80 34/38/79 12/74/110
s 2
f 37/34/70 3/58/8 7/59/11 27/60/67
s 7
f 29/61/71 32/37/50 18/22/49 13/16/111
s 2
f 20/62/39 38/33/69 30/32/68 15/63/36
s 9
f 22/64/112 24/65/63 43/41/66 39/40/83
s 2
f 50/48/113 45/46/114 51/66/99 54/52/102
s 11
f 35/67/78 40/68/81 46/69/115 49/47/116
s 9
f 44/43/65 23/28/64 52/45/117 47/44/118
s 2
f 26/29/46 16/19/45 55/51/101 53/50/100
s 7
f 19/70/48 31/71/51 48/72/119 56/49/120
s 1
f 1/3/1 2/4/5 3/58/2
f 4/8/12 5/53/7 6/73/6
s 3
f 7/59/19 8/11/23 9/54/20
f 10/55/25 11/12/24 12/74/26
f 13/16/29 14/17/33 15/75/30
f 16/20/40 17/56/35 18/22/34 19/76/41
s 1
f 20/18/52 21/26/56 22/64/53
f 23/77/59 24/65/58 25/27/57 26/78/60
s 3
f 27/10/22 28/35/21 29/61/32 30/79/31
f 31/80/74 32/37/121 33/36/28 34/81/27 35/82/75
s 1
f 36/57/4 37/83/3 38/84/55 39/40/54
f 40/85/85 41/7/14 42/42/13 43/41/122 44/86/86
s off
f 45/46/123 46/69/124 47/44/125
f 48/72/126 49/47/127 50/48/128
s 1
f 51/66/91 52/45/62 53/50/61
s 3
f 54/52/98 55/51/43 56/49/42
