# This file uses centimeters as units for non-parametric coordinates.

g default
v -3.663342 -0.113638 -1.076724
v -3.642178 -0.062083 -0.696196
v -4.049679 -0.087451 -1.114181
v -2.874647 -0.064735 -0.925356
v -2.975051 -0.048424 -0.607871
v -2.947728 -0.113638 -0.980451
v -3.724092 0.707600 -1.182200
v -3.642178 0.743364 -0.933729
v -3.663342 0.830349 -1.084915
v -2.947728 0.817056 -0.991076
v -2.975051 0.751413 -0.846031
v -2.677922 0.733052 -0.746962
v -3.881118 1.083732 -2.686017
v -3.993408 0.693153 -2.743098
v -4.065951 0.781351 -2.750699
v -2.733566 0.757893 -2.986947
v -2.926009 0.758488 -2.979924
v -2.798385 1.083732 -2.960392
v -2.807368 0.958182 -2.801914
v -4.162107 -0.025361 -2.958605
v -3.993408 -0.065304 -3.205764
v -3.881118 -0.113638 -2.686017
v -2.653825 -0.113638 -2.942525
v -2.798385 -0.113638 -2.960392
v -2.926009 -0.002067 -3.445748
v -2.733566 -0.065758 -2.986947
v -4.374182 0.779632 -1.887248
v -4.141568 0.933068 -1.816817
v -4.195259 1.083732 -1.977209
v -4.350927 0.717759 -2.067178
v -2.541819 0.913651 -1.577846
v -2.676279 1.083732 -1.560053
v -2.709347 0.881630 -1.443864
v -2.358976 0.760160 -1.094825
v -2.348723 0.755125 -1.228701
v -4.141568 -0.113638 -1.827442
v -4.702483 -0.015511 -1.818661
v -4.447818 -0.089478 -2.276672
v -4.195259 -0.113638 -1.977209
v -2.353252 -0.067218 -1.255423
v -2.584361 -0.044207 -1.244553
v -2.709347 -0.113638 -1.445067
v -2.676279 -0.113638 -1.560053
v -2.546798 -0.113638 -1.577846
v -1.773163 -0.061155 -1.766198
v -1.784076 -0.058939 -1.664102
v -1.818579 -0.113638 -1.837282
v -2.004188 0.828996 -1.696671
v -1.784076 0.755250 -1.636866
v -1.773163 0.753290 -1.766198
v -1.817628 -0.064093 -2.513350
v -1.968157 -0.113638 -2.668020
v -2.030408 -0.064093 -2.717843
v -1.817628 0.756228 -2.513350
v -2.030408 0.756228 -2.717843
v -2.148056 0.851996 -2.527409
vt 0.392121 0.985425
vt 0.375000 0.991404
vt 0.390427 -0.000000
vt 0.397568 0.013319
vt 0.625000 0.984998
vt 0.598811 0.983527
vt 0.625000 0.879529
vt 0.640002 0.014076
vt 0.375000 0.258596
vt 0.375000 0.375939
vt 0.397568 0.236681
vt 0.601149 0.235924
vt 0.625000 0.265002
vt 0.375000 0.490975
vt 0.375000 0.393474
vt 0.386996 0.494037
vt 0.389968 0.513363
vt 0.375000 0.730913
vt 0.875000 0.236981
vt 0.625000 0.525127
vt 0.625000 0.491729
vt 0.610493 0.495104
vt 0.625000 0.396045
vt 0.125000 0.000000
vt 0.222877 0.000000
vt 0.389968 0.736637
vt 0.610417 0.736981
vt 0.869609 0.000000
vt 0.875000 0.013019
vt 0.625000 0.758271
vt 0.625000 0.853955
vt 0.231526 0.236724
vt 0.231526 0.013276
vt 0.249061 0.013276
vt 0.389614 0.372750
vt 0.602917 0.372750
vt 0.612982 0.391005
vt 0.745471 0.236831
vt 0.745471 0.013169
vt 0.385239 0.856872
vt 0.612982 0.858994
vt 0.602917 0.877250
vt 0.767590 0.000000
vt 0.768976 0.000000
vt 0.868684 0.000000
vt 0.768403 0.014271
vt 0.759507 0.235729
vt 0.768403 0.235729
vt 0.868684 0.250000
vt 0.875000 0.013472
vt 0.875000 0.236528
vt 0.866602 0.236528
vt 0.601149 0.014076
vt 0.392121 0.264575
vt 0.598811 0.266473
vt 0.610417 0.513019
vt 0.389614 0.877250
vt 0.366404 0.013319
vt 0.366404 0.236681
vt 0.249061 0.236724
vt 0.385239 0.393128
vt 0.134025 0.013363
vt 0.134025 0.236637
vt 0.386996 0.755963
vt 0.610493 0.754896
vt 0.866602 0.013472
vt 0.759507 0.236831
vt 0.759507 0.013169
vt 0.759507 0.014271
vt 0.869609 0.250000
vt 0.767590 0.250000
vt 0.768976 0.250000
vt 0.608805 0.000000
vt 0.640002 0.235924
vt 0.375000 0.513039
vt 0.625000 0.500000
vt 0.625000 0.750000
vt 0.625000 0.737646
vt 0.385788 0.384507
vt 0.625000 0.384507
vt 0.625000 0.370471
vt 0.625000 0.384507
vt 0.375000 0.874061
vt 0.385788 0.865493
vt 0.625000 0.865493
vt 0.625000 0.865493
vn -0.058302 -0.990831 0.121883
vn -0.129847 -0.989945 0.056106
vn -0.145914 -0.987654 0.056997
vn -0.136812 -0.989088 0.054651
vn -0.020457 -0.988310 0.151077
vn 0.067186 -0.984415 0.162523
vn -0.001791 -0.988055 0.154091
vn -0.702626 0.319326 0.635883
vn -0.413405 0.297330 0.860634
vn -0.384211 0.296909 0.874201
vn -0.719647 0.309762 0.621414
vn 0.330326 -0.925057 0.187494
vn 0.177817 -0.965789 0.188765
vn 0.123313 -0.974349 0.188249
vn 0.479607 -0.026245 0.877091
vn 0.479607 -0.026245 0.877091
vn 0.479607 -0.026245 0.877091
vn 0.479607 -0.026245 0.877091
vn -0.714760 0.379109 0.587702
vn -0.485019 0.653693 0.580897
vn -0.744243 0.431154 0.510106
vn -0.772318 0.467964 0.429575
vn -0.136965 0.875740 0.462947
vn -0.059585 0.892126 0.447841
vn 0.050610 0.950081 0.307872
vn 0.125527 0.970669 0.205048
vn 0.191206 0.944729 0.266323
vn 0.180483 0.949925 0.255084
vn -0.477939 0.317858 -0.818866
vn -0.782615 0.486067 -0.388913
vn -0.823804 0.503237 -0.260958
vn -0.819043 0.497880 -0.285104
vn -0.219786 0.177817 -0.959205
vn -0.200623 0.184063 -0.962222
vn -0.183751 0.185965 -0.965221
vn -0.888110 0.219779 -0.403681
vn -0.277588 0.488034 -0.827507
vn -0.250900 0.497587 -0.830335
vn -0.866988 0.234536 -0.439688
vn 0.333345 0.766067 -0.549565
vn 0.414664 0.687852 -0.595746
vn 0.285476 0.902250 -0.323186
vn 0.271975 0.849257 -0.452540
vn -0.017563 0.488466 -0.872406
vn 0.486994 0.053673 -0.871754
vn 0.470648 0.046703 -0.881084
vn -0.017529 0.488461 -0.872410
vn 0.563984 0.823281 -0.064268
vn 0.093471 0.995534 -0.013240
vn 0.100084 0.982868 0.154771
vn 0.330049 0.943606 -0.026010
vn -0.126834 -0.988173 -0.086186
vn -0.039245 -0.989736 -0.137413
vn -0.136172 -0.990364 -0.025228
vn -0.135543 -0.990408 -0.026823
vn -0.036587 -0.989126 -0.142448
vn -0.005171 -0.987572 -0.157084
vn 0.021543 -0.984507 -0.174019
vn 0.363805 -0.421431 -0.830688
vn 0.422435 -0.708764 -0.564980
vn 0.365186 -0.322025 -0.873464
vn 0.583177 -0.681577 -0.441993
vn 0.000000 -1.000000 0.000000
vn 0.000000 -1.000000 0.000000
vn 0.000000 -1.000000 0.000000
vn 0.000000 -1.000000 0.000000
vn -0.777841 0.354884 0.518672
vn -0.892522 0.227569 -0.389381
vn -0.896326 0.222344 -0.383619
vn -0.838852 0.363368 0.405328
vn -0.052702 0.976872 0.207227
vn -0.141842 0.782010 0.606912
vn -0.107724 0.860429 0.498054
vn 0.266441 0.898107 0.349875
vn 0.243949 0.911927 0.329967
vn 0.217586 0.926676 0.306475
vn 0.217586 0.926676 0.306475
vn 0.569340 -0.052472 0.820426
vn 0.664339 -0.280492 0.692804
vn 0.674979 -0.288329 0.679169
vn 0.570937 -0.049961 0.819472
vn 0.000000 -1.000000 0.000000
vn 0.000000 -1.000000 0.000000
vn 0.000000 -1.000000 0.000000
vn 0.080558 -0.983374 0.162745
vn 0.052525 -0.983555 0.172804
vn 0.088583 -0.983161 0.159834
vn 0.088583 -0.983161 0.159834
vn 0.516111 -0.854283 -0.061879
vn 0.516111 -0.854283 -0.061879
vn 0.524540 -0.848272 -0.072742
vn 0.995578 -0.001571 0.093927
vn 0.995578 -0.001571 0.093927
vn 0.995578 -0.001571 0.093927
vn 0.995578 -0.001571 0.093927
vn 0.290329 0.956740 -0.018926
vn 0.290329 0.956740 -0.018926
vn 0.290236 0.956461 -0.030761
vn 0.964944 0.000000 -0.262457
vn 0.459020 0.000000 -0.888426
vn 0.459020 0.000000 -0.888426
vn 0.964944 0.000000 -0.262457
vn -0.129999 0.281707 0.950653
vn -0.129999 0.281707 0.950653
vn -0.000572 0.990160 0.139940
vn -0.000572 0.990160 0.139940
vn 0.000000 -1.000000 0.000000
vn 0.000000 -1.000000 0.000000
vn 0.711682 -0.315998 0.627418
vn 0.711682 -0.315998 0.627419
vn 0.000000 1.000000 0.000000
vn 0.000000 -1.000000 0.000000
vn 0.998234 0.000000 -0.059408
vn 0.998234 0.000000 -0.059408
vn 0.584440 -0.028355 0.810942
vn 0.584440 -0.028355 0.810942
vn 0.000000 -1.000000 0.000000
vn 0.000000 -1.000000 0.000000
vn 0.157310 0.987549 0.001112
vn 0.157310 0.987549 0.001112
vn 0.300303 0.875052 0.379607
vn 0.016158 -0.982492 0.185601
vn 0.690077 -0.718199 0.089357
vn 0.690077 -0.718199 0.089357
vn 0.690077 -0.718199 0.089357
vn 0.314685 0.949118 0.012173
vn 0.314685 0.949118 0.012173
vn 0.314685 0.949118 0.012173
s 1
g pasted__pCube1 group2
f 1/1/1 3/2/2 37/83/3 36/57/4
f 2/4/5 1/3/1 6/73/6 5/53/7
s 2
f 3/58/8 2/4/9 8/11/10 7/59/11
s 1
f 4/5/12 6/6/6 42/42/13 41/7/14
s off
f 5/53/15 4/8/16 12/74/17 11/12/18
s 3
f 7/9/19 9/54/20 28/35/21 27/10/22
f 9/54/20 8/11/23 11/12/24 10/55/25
f 10/55/25 12/13/26 34/81/27 33/36/28
f 13/16/29 15/14/30 30/15/31 29/61/32
f 14/17/33 13/16/29 18/22/34 17/56/35
s 2
f 15/75/36 14/17/37 21/26/38 20/18/39
s 3
f 16/19/40 19/70/41 56/49/42 55/51/43
s 2
f 17/56/44 16/20/45 26/78/46 25/27/47
s 7
f 19/21/48 18/22/49 32/37/50 31/23/51
s 1
f 20/62/52 22/24/53 39/25/54 38/33/55
f 22/64/53 21/26/56 25/27/57 24/65/58
f 23/28/59 26/29/60 53/50/61 52/45/62
s 9
f 24/65/63 23/30/64 44/31/65 43/41/66
s 2
f 27/60/67 30/32/68 38/33/69 37/34/70
s 7
f 29/61/71 28/35/72 33/36/73 32/37/50
s 3
f 31/71/74 35/67/75 49/47/76 48/72/77
s 11
f 35/67/78 34/38/79 41/39/80 40/68/81
s 9
f 36/57/82 39/40/83 43/41/66 42/42/84
s 1
f 40/68/85 44/43/86 47/44/87 46/69/88
f 45/46/89 47/44/90 52/45/62 51/66/91
s off
f 46/69/92 45/46/93 50/48/94 49/47/95
s 3
f 48/72/96 50/48/97 54/52/98 56/49/42
s 2
f 51/66/99 53/50/100 55/51/101 54/52/102
f 2/4/9 5/53/103 11/12/104 8/11/10
s 7
f 9/54/105 10/55/106 33/36/73 28/35/72
s 2
f 14/17/37 17/56/44 25/27/47 21/26/38
s 9
f 36/57/82 42/42/84 6/6/107 1/1/108
s 11
f 4/8/109 41/39/80 34/38/79 12/74/110
s 2
f 37/34/70 3/58/8 7/59/11 27/60/67
s 7
f 29/61/71 32/37/50 18/22/49 13/16/111
s 2
f 20/62/39 38/33/69 30/32/68 15/63/36
s 9
f 22/64/112 24/65/63 43/41/66 39/40/83
s 2
f 50/48/113 45/46/114 51/66/99 54/52/102
s 11
f 35/67/78 40/68/81 46/69/115 49/47/116
s 9
f 44/43/65 23/28/64 52/45/117 47/44/118
s 2
f 26/29/46 16/19/45 55/51/101 53/50/100
s 7
f 19/70/48 31/71/51 48/72/119 56/49/120
s 1
f 1/3/1 2/4/5 3/58/2
f 4/8/12 5/53/7 6/73/6
s 3
f 7/59/19 8/11/23 9/54/20
f 10/55/25 11/12/24 12/74/26
f 13/16/29 14/17/33 15/75/30
f 16/20/40 17/56/35 18/22/34 19/76/41
s 1
f 20/18/52 21/26/56 22/64/53
f 23/77/59 24/65/58 25/27/57 26/78/60
s 3
f 27/10/22 28/35/21 29/61/32 30/79/31
f 31/80/74 32/37/121 33/36/28 34/81/27 35/82/75
s 1
f 36/57/4 37/83/3 38/84/55 39/40/54
f 40/85/85 41/7/14 42/42/13 43/41/122 44/86/86
s off
f 45/46/123 46/69/124 47/44/125
f 48/72/126 49/47/127 50/48/128
s 1
f 51/66/91 52/45/62 53/50/61
s 3
f 54/52/98 55/51/43 56/49/42
